# xmcd
#
# Track frame offsets: 
#        150
#        16489
#        34354
#        48679
#        60678
#        77660
#        93709
#        110524
#        129529
#        148847
#        161342
#        173006
#        186040
#        194131
#        208275
#        217559
#        232904
#        248370
#        259516
#        282049
#        300725
#        320104
#
# Disc length: 4462 seconds
#
# Revision: 1
# Processed by: cddbd v1.5.2PL0 Copyright (c) Steve Scherf et al.
# Submitted via: ExactAudioCopy v0.99pb5
#
DISCID=3d116c16
DTITLE=Vari - Romantix Sax [CD2)
DYEAR=2008
DGENRE=Blues
TTITLE0=Feelings
TTITLE1=Guilty
TTITLE2=Moonlight Shadow
TTITLE3=Ti amo
TTITLE4=Lady
TTITLE5=Unchained Melody
TTITLE6=I Write the Songs
TTITLE7=Take My Breath Away
TTITLE8=Say You Say Me
TTITLE9=Someone to Watch over Me
TTITLE10=You Belong to Me
TTITLE11=Smoke Gets in Your Eyes
TTITLE12=A Perfect Day
TTITLE13=Santa Comba
TTITLE14=From Vienna
TTITLE15=Velvet Silk
TTITLE16=Words
TTITLE17=(Everything I Do) I Do It for You
TTITLE18=Me and Mrs Jones
TTITLE19=Everything I Do
TTITLE20=Hello Again
TTITLE21=Midnight Angel
EXTD=
EXTT0=
EXTT1=
EXTT2=
EXTT3=
EXTT4=
EXTT5=
EXTT6=
EXTT7=
EXTT8=
EXTT9=
EXTT10=
EXTT11=
EXTT12=
EXTT13=
EXTT14=
EXTT15=
EXTT16=
EXTT17=
EXTT18=
EXTT19=
EXTT20=
EXTT21=
PLAYORDER=
